<svg width="24" height="26" viewBox="0 0 24 26" fill="none" xmlns="http://www.w3.org/2000/svg">
<path d="M20.309 19.1837C18.906 20.8314 16.783 21.6667 14 21.6667L13 21.6667L13 18.6127L13.804 18.4383C15.174 18.1415 16.127 17.5576 16.637 16.7007C16.9031 16.239 17.054 15.7104 17.075 15.1667L14 15.1667C13.7348 15.1667 13.4804 15.0525 13.2929 14.8494C13.1054 14.6462 13 14.3706 13 14.0833L13 6.5C13 5.30508 13.897 4.33333 15 4.33333L21 4.33333C21.2652 4.33333 21.5196 4.44747 21.7071 4.65063C21.8946 4.85379 22 5.12934 22 5.41666L22 10.8333L21.997 13.9956C22.006 14.1158 22.196 16.965 20.309 19.1837ZM4 4.33333L10 4.33333C10.2652 4.33333 10.5196 4.44746 10.7071 4.65063C10.8946 4.85379 11 5.12934 11 5.41666L11 10.8333L10.997 13.9956C11.006 14.1158 11.196 16.965 9.309 19.1837C7.906 20.8314 5.783 21.6667 3 21.6667L2 21.6667L2 18.6127L2.804 18.4383C4.174 18.1415 5.127 17.5576 5.637 16.7007C5.90311 16.239 6.05403 15.7104 6.075 15.1667L3 15.1667C2.73478 15.1667 2.48043 15.0525 2.29289 14.8494C2.10535 14.6462 2 14.3706 2 14.0833L2 6.5C2 5.30508 2.897 4.33333 4 4.33333Z" fill="#7EC1F2"/>
</svg>
