<svg width="24" height="26" viewBox="0 0 24 26" fill="none" xmlns="http://www.w3.org/2000/svg">
<path d="M3.691 6.81634C5.094 5.16859 7.217 4.33334 10 4.33334H11V7.38726L10.196 7.56168C8.826 7.85851 7.873 8.44243 7.363 9.29934C7.09689 9.76098 6.94597 10.2896 6.925 10.8333H10C10.2652 10.8333 10.5196 10.9475 10.7071 11.1506C10.8946 11.3538 11 11.6294 11 11.9167V19.5C11 20.6949 10.103 21.6667 9 21.6667H3C2.73478 21.6667 2.48043 21.5525 2.29289 21.3494C2.10536 21.1462 2 20.8707 2 20.5833V15.1667L2.003 12.0044C1.994 11.8842 1.804 9.03501 3.691 6.81634ZM20 21.6667H14C13.7348 21.6667 13.4804 21.5525 13.2929 21.3494C13.1054 21.1462 13 20.8707 13 20.5833V15.1667L13.003 12.0044C12.994 11.8842 12.804 9.03501 14.691 6.81634C16.094 5.16859 18.217 4.33334 21 4.33334H22V7.38726L21.196 7.56168C19.826 7.85851 18.873 8.44243 18.363 9.29934C18.0969 9.76098 17.946 10.2896 17.925 10.8333H21C21.2652 10.8333 21.5196 10.9475 21.7071 11.1506C21.8946 11.3538 22 11.6294 22 11.9167V19.5C22 20.6949 21.103 21.6667 20 21.6667Z" fill="#7EC1F2"/>
</svg>
